<mxfile host="app.diagrams.net" modified="2023-04-20T09:57:29.336Z" agent="Mozilla/5.0 (X11; Linux x86_64; rv:109.0) Gecko/20100101 Firefox/111.0" etag="-e9E1eD939DO5yxe-FxT" version="21.2.0" type="device">
  <diagram name="Page-1" id="56QPCwbd0cLktFSz25ie">
    <mxGraphModel dx="2600" dy="1333" grid="1" gridSize="10" guides="1" tooltips="1" connect="1" arrows="1" fold="1" page="1" pageScale="1" pageWidth="850" pageHeight="1100" math="0" shadow="0">
      <root>
        <mxCell id="0" />
        <mxCell id="1" parent="0" />
        <mxCell id="Qk9qD6PRYy8a2zJd2hO1-56" value="" style="shape=cube;whiteSpace=wrap;html=1;boundedLbl=1;backgroundOutline=1;darkOpacity=0.05;darkOpacity2=0.1;fillColor=none;" parent="1" vertex="1">
          <mxGeometry x="100" y="520" width="720" height="740" as="geometry" />
        </mxCell>
        <mxCell id="k2swmo7qzIprsYgqh0As-2" value="&lt;font style=&quot;font-size: 35px;&quot;&gt;Resource Storage 1&lt;br&gt;&lt;/font&gt;" style="swimlane;whiteSpace=wrap;html=1;startSize=60;strokeWidth=4;fillColor=#e1d5e7;strokeColor=#9673a6;" parent="1" vertex="1">
          <mxGeometry x="160" y="740" width="470" height="490" as="geometry" />
        </mxCell>
        <mxCell id="k2swmo7qzIprsYgqh0As-3" value="&lt;font style=&quot;font-size: 35px;&quot;&gt;Resource Manager 1&lt;br&gt;&lt;/font&gt;" style="swimlane;whiteSpace=wrap;html=1;startSize=60;strokeWidth=4;fillColor=#e1d5e7;strokeColor=#9673a6;" parent="1" vertex="1">
          <mxGeometry x="140" y="650" width="510" height="590" as="geometry" />
        </mxCell>
        <mxCell id="k2swmo7qzIprsYgqh0As-4" value="&lt;font style=&quot;font-size: 40px;&quot;&gt;Sub-Controller Manager 1 (SCM 1)&lt;br&gt;&lt;/font&gt;" style="swimlane;whiteSpace=wrap;html=1;startSize=60;strokeWidth=4;fillColor=#ffe6cc;strokeColor=#d79b00;" parent="1" vertex="1">
          <mxGeometry x="130" y="560" width="670" height="690" as="geometry" />
        </mxCell>
        <mxCell id="k2swmo7qzIprsYgqh0As-25" value="&lt;div&gt;&lt;b&gt;&lt;font style=&quot;font-size: 35px;&quot;&gt;Command/&lt;/font&gt;&lt;/b&gt;&lt;/div&gt;&lt;div&gt;&lt;b&gt;&lt;font style=&quot;font-size: 35px;&quot;&gt;StateInterfaces&lt;/font&gt;&lt;/b&gt;&lt;/div&gt;" style="rounded=1;whiteSpace=wrap;html=1;verticalAlign=top;" parent="k2swmo7qzIprsYgqh0As-4" vertex="1">
          <mxGeometry x="80" y="250" width="400" height="410" as="geometry" />
        </mxCell>
        <mxCell id="Id3zEx_MKuF8qYqqnzGw-2" value="&lt;div style=&quot;font-size: 35px;&quot;&gt;&lt;font style=&quot;font-size: 35px;&quot;&gt;CommandInterface&lt;/font&gt;&lt;/div&gt;&lt;div style=&quot;font-size: 35px;&quot;&gt;&lt;font style=&quot;font-size: 35px;&quot;&gt;Node&lt;font style=&quot;font-size: 35px;&quot;&gt;&lt;br&gt;&lt;/font&gt;&lt;/font&gt;&lt;/div&gt;" style="ellipse;whiteSpace=wrap;html=1;strokeColor=#990000;strokeWidth=5;" vertex="1" parent="k2swmo7qzIprsYgqh0As-4">
          <mxGeometry x="100" y="350" width="370" height="140" as="geometry" />
        </mxCell>
        <mxCell id="Id3zEx_MKuF8qYqqnzGw-10" value="&lt;div style=&quot;font-size: 35px;&quot;&gt;&lt;font style=&quot;font-size: 35px;&quot;&gt;StateInteface&lt;/font&gt;&lt;/div&gt;&lt;div style=&quot;font-size: 35px;&quot;&gt;&lt;font style=&quot;font-size: 35px;&quot;&gt;Node&lt;font style=&quot;font-size: 35px;&quot;&gt;&lt;br&gt;&lt;/font&gt;&lt;/font&gt;&lt;/div&gt;" style="ellipse;whiteSpace=wrap;html=1;strokeColor=#990000;strokeWidth=5;" vertex="1" parent="k2swmo7qzIprsYgqh0As-4">
          <mxGeometry x="100" y="500" width="370" height="140" as="geometry" />
        </mxCell>
        <mxCell id="Qk9qD6PRYy8a2zJd2hO1-57" value="&lt;b&gt;&lt;font style=&quot;font-size: 80px;&quot;&gt;&amp;nbsp;Machine 1&lt;br&gt;&lt;/font&gt;&lt;/b&gt;" style="text;html=1;align=center;verticalAlign=middle;resizable=0;points=[];autosize=1;strokeColor=none;fillColor=none;" parent="1" vertex="1">
          <mxGeometry x="240" y="400" width="430" height="110" as="geometry" />
        </mxCell>
        <mxCell id="Id3zEx_MKuF8qYqqnzGw-23" style="rounded=0;orthogonalLoop=1;jettySize=auto;html=1;exitX=0;exitY=0.5;exitDx=0;exitDy=0;entryX=1;entryY=1;entryDx=0;entryDy=0;strokeWidth=5;strokeColor=#990000;" edge="1" parent="1" source="Id3zEx_MKuF8qYqqnzGw-7" target="Id3zEx_MKuF8qYqqnzGw-2">
          <mxGeometry relative="1" as="geometry" />
        </mxCell>
        <mxCell id="Id3zEx_MKuF8qYqqnzGw-7" value="&lt;font style=&quot;font-size: 35px;&quot;&gt;ReceiveCommandTopic&lt;/font&gt;" style="rounded=0;whiteSpace=wrap;html=1;labelBackgroundColor=none;strokeWidth=4;strokeColor=#990000;" vertex="1" parent="1">
          <mxGeometry x="1180" y="750" width="420" height="220" as="geometry" />
        </mxCell>
        <mxCell id="Id3zEx_MKuF8qYqqnzGw-8" value="&lt;font style=&quot;font-size: 35px;&quot;&gt;PublishCommandTopic&lt;/font&gt;" style="rounded=0;whiteSpace=wrap;html=1;labelBackgroundColor=none;strokeWidth=4;strokeColor=#990000;" vertex="1" parent="1">
          <mxGeometry x="1180" y="520" width="420" height="220" as="geometry" />
        </mxCell>
        <mxCell id="Id3zEx_MKuF8qYqqnzGw-9" value="&lt;font style=&quot;font-size: 35px;&quot;&gt;PublishStateTopic&lt;/font&gt;" style="rounded=0;whiteSpace=wrap;html=1;labelBackgroundColor=none;strokeWidth=4;strokeColor=#990000;" vertex="1" parent="1">
          <mxGeometry x="1180" y="1040" width="420" height="220" as="geometry" />
        </mxCell>
        <mxCell id="Id3zEx_MKuF8qYqqnzGw-11" value="" style="shape=cube;whiteSpace=wrap;html=1;boundedLbl=1;backgroundOutline=1;darkOpacity=0.05;darkOpacity2=0.1;fillColor=none;" vertex="1" parent="1">
          <mxGeometry x="2030" y="520" width="690" height="740" as="geometry" />
        </mxCell>
        <mxCell id="Id3zEx_MKuF8qYqqnzGw-12" value="&lt;font style=&quot;font-size: 35px;&quot;&gt;Resource Storage &lt;br&gt;&lt;/font&gt;" style="swimlane;whiteSpace=wrap;html=1;startSize=60;strokeWidth=4;fillColor=#e1d5e7;strokeColor=#9673a6;" vertex="1" parent="1">
          <mxGeometry x="2110" y="740" width="450" height="490" as="geometry" />
        </mxCell>
        <mxCell id="Id3zEx_MKuF8qYqqnzGw-13" value="&lt;font style=&quot;font-size: 35px;&quot;&gt;Resource Manager &lt;br&gt;&lt;/font&gt;" style="swimlane;whiteSpace=wrap;html=1;startSize=60;strokeWidth=4;fillColor=#e1d5e7;strokeColor=#9673a6;" vertex="1" parent="1">
          <mxGeometry x="2090" y="650" width="490" height="590" as="geometry" />
        </mxCell>
        <mxCell id="Id3zEx_MKuF8qYqqnzGw-14" value="&lt;font style=&quot;font-size: 40px;&quot;&gt;Central Controller Manager (CM)&lt;br&gt;&lt;/font&gt;" style="swimlane;whiteSpace=wrap;html=1;startSize=60;strokeWidth=4;fillColor=#ffe6cc;strokeColor=#d79b00;" vertex="1" parent="1">
          <mxGeometry x="2070" y="560" width="630" height="690" as="geometry" />
        </mxCell>
        <mxCell id="Id3zEx_MKuF8qYqqnzGw-15" value="&lt;i&gt;&lt;br&gt;&lt;/i&gt;&lt;div&gt;&lt;b&gt;&lt;i&gt;&lt;font style=&quot;font-size: 35px;&quot;&gt;&lt;u&gt;Exported&lt;/u&gt;&lt;/font&gt;&lt;/i&gt;&lt;font style=&quot;font-size: 35px;&quot;&gt; Command/&lt;/font&gt;&lt;/b&gt;&lt;/div&gt;&lt;div&gt;&lt;b&gt;&lt;font style=&quot;font-size: 35px;&quot;&gt;StateInterfaces&lt;/font&gt;&lt;/b&gt;&lt;/div&gt;" style="rounded=1;whiteSpace=wrap;html=1;verticalAlign=top;" vertex="1" parent="Id3zEx_MKuF8qYqqnzGw-14">
          <mxGeometry x="80" y="250" width="400" height="410" as="geometry" />
        </mxCell>
        <mxCell id="Id3zEx_MKuF8qYqqnzGw-16" value="&lt;div style=&quot;font-size: 35px;&quot;&gt;&lt;font style=&quot;font-size: 35px;&quot;&gt;&lt;i&gt;&lt;u&gt;Exported&lt;/u&gt;&lt;/i&gt;&lt;/font&gt;&lt;/div&gt;&lt;div style=&quot;font-size: 35px;&quot;&gt;&lt;font style=&quot;font-size: 35px;&quot;&gt;CommandInterface&lt;/font&gt;&lt;/div&gt;&lt;div style=&quot;font-size: 35px;&quot;&gt;&lt;font style=&quot;font-size: 35px;&quot;&gt;Node&lt;font style=&quot;font-size: 35px;&quot;&gt;&lt;br&gt;&lt;/font&gt;&lt;/font&gt;&lt;/div&gt;" style="ellipse;whiteSpace=wrap;html=1;strokeColor=#990000;strokeWidth=5;" vertex="1" parent="Id3zEx_MKuF8qYqqnzGw-14">
          <mxGeometry x="100" y="350" width="370" height="140" as="geometry" />
        </mxCell>
        <mxCell id="Id3zEx_MKuF8qYqqnzGw-17" value="&lt;br&gt;&lt;div style=&quot;font-size: 35px;&quot;&gt;&lt;font style=&quot;font-size: 35px;&quot;&gt;&lt;i&gt;&lt;u&gt;Exported&lt;/u&gt;&lt;/i&gt;&lt;/font&gt;&lt;/div&gt;&lt;div style=&quot;font-size: 35px;&quot;&gt;&lt;font style=&quot;font-size: 35px;&quot;&gt;StateInteface&lt;/font&gt;&lt;/div&gt;&lt;div style=&quot;font-size: 35px;&quot;&gt;&lt;font style=&quot;font-size: 35px;&quot;&gt;Node&lt;font style=&quot;font-size: 35px;&quot;&gt;&lt;br&gt;&lt;/font&gt;&lt;/font&gt;&lt;/div&gt;" style="ellipse;whiteSpace=wrap;html=1;strokeColor=#990000;strokeWidth=5;" vertex="1" parent="Id3zEx_MKuF8qYqqnzGw-14">
          <mxGeometry x="100" y="500" width="370" height="140" as="geometry" />
        </mxCell>
        <mxCell id="Id3zEx_MKuF8qYqqnzGw-18" value="&lt;b&gt;&lt;font style=&quot;font-size: 80px;&quot;&gt;&amp;nbsp;Machine 2&lt;br&gt;&lt;/font&gt;&lt;/b&gt;" style="text;html=1;align=center;verticalAlign=middle;resizable=0;points=[];autosize=1;strokeColor=none;fillColor=none;" vertex="1" parent="1">
          <mxGeometry x="2150" y="400" width="430" height="110" as="geometry" />
        </mxCell>
        <mxCell id="Id3zEx_MKuF8qYqqnzGw-22" value="" style="rounded=0;orthogonalLoop=1;jettySize=auto;html=1;exitX=1;exitY=0;exitDx=0;exitDy=0;entryX=0;entryY=0.5;entryDx=0;entryDy=0;strokeWidth=5;labelBackgroundColor=none;strokeColor=#990000;" edge="1" parent="1" source="Id3zEx_MKuF8qYqqnzGw-2" target="Id3zEx_MKuF8qYqqnzGw-8">
          <mxGeometry x="0.3436" y="98" relative="1" as="geometry">
            <mxPoint as="offset" />
          </mxGeometry>
        </mxCell>
        <mxCell id="Id3zEx_MKuF8qYqqnzGw-26" style="rounded=0;orthogonalLoop=1;jettySize=auto;html=1;exitX=1;exitY=0.5;exitDx=0;exitDy=0;entryX=0;entryY=0.5;entryDx=0;entryDy=0;strokeWidth=5;strokeColor=#990000;" edge="1" parent="1" source="Id3zEx_MKuF8qYqqnzGw-10" target="Id3zEx_MKuF8qYqqnzGw-9">
          <mxGeometry relative="1" as="geometry" />
        </mxCell>
        <mxCell id="Id3zEx_MKuF8qYqqnzGw-28" style="rounded=0;orthogonalLoop=1;jettySize=auto;html=1;exitX=0;exitY=1;exitDx=0;exitDy=0;entryX=1;entryY=0.5;entryDx=0;entryDy=0;strokeWidth=5;strokeColor=#990000;" edge="1" parent="1" source="Id3zEx_MKuF8qYqqnzGw-16" target="Id3zEx_MKuF8qYqqnzGw-7">
          <mxGeometry relative="1" as="geometry" />
        </mxCell>
        <mxCell id="Id3zEx_MKuF8qYqqnzGw-31" value="&lt;div style=&quot;font-size: 35px;&quot;&gt;&lt;i&gt;&lt;font style=&quot;font-size: 35px;&quot;&gt;Receive&lt;/font&gt;&lt;/i&gt;&lt;/div&gt;&lt;div style=&quot;font-size: 35px;&quot;&gt;&lt;i&gt;&lt;font style=&quot;font-size: 35px;&quot;&gt;Command&lt;font style=&quot;font-size: 35px;&quot;&gt;&lt;br&gt;&lt;/font&gt;&lt;/font&gt;&lt;/i&gt;&lt;/div&gt;" style="text;whiteSpace=wrap;html=1;" vertex="1" parent="1">
          <mxGeometry x="870" y="800" width="190" height="110" as="geometry" />
        </mxCell>
        <mxCell id="Id3zEx_MKuF8qYqqnzGw-33" value="&lt;div style=&quot;font-size: 35px;&quot;&gt;&lt;i&gt;&lt;font style=&quot;font-size: 35px;&quot;&gt;Receive&lt;/font&gt;&lt;/i&gt;&lt;/div&gt;&lt;div style=&quot;font-size: 35px;&quot;&gt;&lt;i&gt;&lt;font style=&quot;font-size: 35px;&quot;&gt;Command&lt;font style=&quot;font-size: 35px;&quot;&gt;&lt;br&gt;&lt;/font&gt;&lt;/font&gt;&lt;/i&gt;&lt;/div&gt;" style="text;whiteSpace=wrap;html=1;" vertex="1" parent="1">
          <mxGeometry x="1760" y="600" width="190" height="110" as="geometry" />
        </mxCell>
        <mxCell id="Id3zEx_MKuF8qYqqnzGw-34" value="&lt;div style=&quot;font-size: 35px;&quot;&gt;&lt;i&gt;&lt;font style=&quot;font-size: 35px;&quot;&gt;Publish&lt;/font&gt;&lt;/i&gt;&lt;/div&gt;&lt;div style=&quot;font-size: 35px;&quot;&gt;&lt;i&gt;&lt;font style=&quot;font-size: 35px;&quot;&gt;Command&lt;font style=&quot;font-size: 35px;&quot;&gt;&lt;br&gt;&lt;/font&gt;&lt;/font&gt;&lt;/i&gt;&lt;/div&gt;" style="text;whiteSpace=wrap;html=1;" vertex="1" parent="1">
          <mxGeometry x="1760" y="800" width="190" height="110" as="geometry" />
        </mxCell>
        <mxCell id="Id3zEx_MKuF8qYqqnzGw-35" value="&lt;div style=&quot;font-size: 35px;&quot;&gt;&lt;i&gt;&lt;font style=&quot;font-size: 35px;&quot;&gt;Publish&lt;/font&gt;&lt;/i&gt;&lt;/div&gt;&lt;div style=&quot;font-size: 35px;&quot;&gt;&lt;i&gt;&lt;font style=&quot;font-size: 35px;&quot;&gt;State&lt;font style=&quot;font-size: 35px;&quot;&gt;&lt;br&gt;&lt;/font&gt;&lt;/font&gt;&lt;/i&gt;&lt;/div&gt;" style="text;whiteSpace=wrap;html=1;" vertex="1" parent="1">
          <mxGeometry x="870" y="1020" width="190" height="110" as="geometry" />
        </mxCell>
        <mxCell id="Id3zEx_MKuF8qYqqnzGw-36" value="&lt;div style=&quot;font-size: 35px;&quot;&gt;&lt;i&gt;&lt;font style=&quot;font-size: 35px;&quot;&gt;Receive&lt;/font&gt;&lt;/i&gt;&lt;/div&gt;&lt;div style=&quot;font-size: 35px;&quot;&gt;&lt;i&gt;&lt;font style=&quot;font-size: 35px;&quot;&gt;State&lt;font style=&quot;font-size: 35px;&quot;&gt;&lt;br&gt;&lt;/font&gt;&lt;/font&gt;&lt;/i&gt;&lt;/div&gt;" style="text;whiteSpace=wrap;html=1;" vertex="1" parent="1">
          <mxGeometry x="1760" y="1020" width="190" height="110" as="geometry" />
        </mxCell>
        <mxCell id="Id3zEx_MKuF8qYqqnzGw-37" value="&lt;div style=&quot;font-size: 35px;&quot;&gt;&lt;i&gt;&lt;font style=&quot;font-size: 35px;&quot;&gt;Publish&lt;/font&gt;&lt;/i&gt;&lt;/div&gt;&lt;div style=&quot;font-size: 35px;&quot;&gt;&lt;i&gt;&lt;font style=&quot;font-size: 35px;&quot;&gt;Command&lt;font style=&quot;font-size: 35px;&quot;&gt;&lt;br&gt;&lt;/font&gt;&lt;/font&gt;&lt;/i&gt;&lt;/div&gt;" style="text;whiteSpace=wrap;html=1;" vertex="1" parent="1">
          <mxGeometry x="870" y="600" width="190" height="110" as="geometry" />
        </mxCell>
        <mxCell id="Id3zEx_MKuF8qYqqnzGw-27" style="rounded=0;orthogonalLoop=1;jettySize=auto;html=1;exitX=1;exitY=0.5;exitDx=0;exitDy=0;entryX=0;entryY=0;entryDx=0;entryDy=0;strokeWidth=5;strokeColor=#990000;" edge="1" parent="1" source="Id3zEx_MKuF8qYqqnzGw-8" target="Id3zEx_MKuF8qYqqnzGw-16">
          <mxGeometry relative="1" as="geometry" />
        </mxCell>
        <mxCell id="Id3zEx_MKuF8qYqqnzGw-29" style="rounded=0;orthogonalLoop=1;jettySize=auto;html=1;exitX=1;exitY=0.5;exitDx=0;exitDy=0;entryX=0;entryY=0.5;entryDx=0;entryDy=0;strokeWidth=5;strokeColor=#990000;" edge="1" parent="1" source="Id3zEx_MKuF8qYqqnzGw-9" target="Id3zEx_MKuF8qYqqnzGw-17">
          <mxGeometry relative="1" as="geometry" />
        </mxCell>
        <mxCell id="Id3zEx_MKuF8qYqqnzGw-40" value="&lt;font style=&quot;font-size: 40px;&quot; color=&quot;#990000&quot;&gt;&lt;b&gt;ROS 2 Nodes and Topics&lt;br&gt;&lt;/b&gt;&lt;/font&gt;" style="text;html=1;align=center;verticalAlign=middle;resizable=0;points=[];autosize=1;strokeColor=none;fillColor=none;" vertex="1" parent="1">
          <mxGeometry x="1140" y="420" width="500" height="60" as="geometry" />
        </mxCell>
        <mxCell id="Id3zEx_MKuF8qYqqnzGw-41" value="&lt;div&gt;&lt;font style=&quot;font-size: 40px;&quot;&gt;Create Loans&lt;br&gt;&lt;/font&gt;&lt;/div&gt;&lt;div&gt;&lt;font style=&quot;font-size: 40px;&quot;&gt;here&lt;br&gt;&lt;/font&gt;&lt;/div&gt;" style="ellipse;shape=cloud;whiteSpace=wrap;html=1;strokeWidth=4;dashed=1;dashPattern=1 1;fillColor=#d5e8d4;strokeColor=#82b366;" vertex="1" parent="1">
          <mxGeometry x="2590" y="900" width="350" height="190" as="geometry" />
        </mxCell>
      </root>
    </mxGraphModel>
  </diagram>
</mxfile>
